# xmcd
#
# Track frame offsets: 
#        182
#        24117
#        42557
#        62615
#        74707
#        92965
#        114757
#        133107
#        158637
#        171042
#        188142
#        206012
#        254362
#
# Disc length: 3639 seconds
#
# Revision: 3
# Processed by: cddbd v1.5.2PL0 Copyright (c) Steve Scherf et al.
# Submitted via: ExactAudioCopyFreeDBPlugin 1.0
#
DISCID=b30e350d
DTITLE=GUITAR GABRIEL - Volume 1
DYEAR=1995
DGENRE=Blues
TTITLE0=Here Comes The Devil
TTITLE1=Blues For Dorothy
TTITLE2=Old Man Rivers
TTITLE3=You Gotta Watch Yourself
TTITLE4=Old Fashioned Love
TTITLE5=Leave My Goat Alone
TTITLE6=Let's Talk It Over
TTITLE7=Dr. Buzzard
TTITLE8=Let It Roll
TTITLE9=Here Comes Grandma
TTITLE10=Hospital Blues
TTITLE11=Back In The Western Days
TTITLE12=Two Brothers
EXTD=
EXTT0=
EXTT1=
EXTT2=
EXTT3=
EXTT4=
EXTT5=
EXTT6=
EXTT7=
EXTT8=
EXTT9=
EXTT10=
EXTT11=
EXTT12=
PLAYORDER=
